# xmcd
#
# Track frame offsets:
#	150
#	12532
#	21805
#	35112
#	49885
#	59270
#	73035
#	83922
#	98295
#	113682
#	122585
#	138375
#
# Disc length: 2042 seconds
#
# Revision: 0
# Processed by: cddbd v1.5.2PL0 Copyright (c) Steve Scherf et al.
# Submitted via: dBpowerAMP V4.0
#
DISCID=9d07f80c
DTITLE=The Derailers - Genuine
DYEAR=2003
DGENRE=Country
TTITLE0=The Way To My Heart
TTITLE1=Take It Back
TTITLE2=Leave A Message, Juanita
TTITLE3=Alone With You
TTITLE4=Boomerange Heart
TTITLE5=Genuine
TTITLE6=Uncool
TTITLE7=Scratch My Itch
TTITLE8=Whole Other Worlc
TTITLE9=The Happy Go Lucky Guitar
TTITLE10=I Love Me Some Elvis
TTITLE11=The Wheel
EXTD=
EXTT0=
EXTT1=
EXTT2=
EXTT3=
EXTT4=
EXTT5=
EXTT6=
EXTT7=
EXTT8=
EXTT9=
EXTT10=
EXTT11=
PLAYORDER=
